<svg width="170" height="51" viewBox="0 0 170 51" fill="none" xmlns="http://www.w3.org/2000/svg">
<g clip-path="url(#clip0_4_322)">
<path d="M12.4892 17.7426C11.0976 17.7426 9.96298 16.5974 9.96298 15.1926C9.96298 13.7879 11.0976 12.6426 12.4892 12.6426C13.3135 12.6426 14.0404 13.0453 14.5013 13.6537L17.0718 11.0589C15.9461 9.78842 14.3151 8.98315 12.4892 8.98315C9.09432 8.98315 6.34653 11.7568 6.34653 15.1837C6.34653 18.6105 9.09432 21.3842 12.4892 21.3842C14.3151 21.3842 15.9461 20.5789 17.0718 19.3084L14.5013 16.7137C14.0404 17.331 13.3135 17.7247 12.4892 17.7247M3.82032 9.37684H0V21.0174H3.82032V9.37684ZM23.8792 14.0742H27.3982V17.2863H23.8881V21.0353H20.0678V9.37684H27.868V12.6516H23.8704V14.0742H23.8792Z" fill="white"/>
<path d="M159.035 45.1484C159.097 44.6921 159.275 44.3342 159.576 44.0568C159.877 43.7884 160.267 43.6452 160.755 43.6452C161.243 43.6452 161.624 43.7794 161.898 44.0568C162.173 44.3252 162.324 44.6921 162.333 45.1484H159.027H159.035ZM162.421 46.7947C162.209 47.0631 161.978 47.26 161.712 47.3942C161.446 47.5284 161.127 47.6 160.746 47.6C160.507 47.6 160.285 47.5552 160.081 47.4658C159.877 47.3763 159.7 47.251 159.55 47.0989C159.399 46.9468 159.275 46.7589 159.186 46.5531C159.089 46.3473 159.035 46.1326 159.027 45.9H163.272V45.6137C163.272 45.1752 163.21 44.7815 163.095 44.4415C162.971 44.1015 162.803 43.8063 162.581 43.5647C162.359 43.3231 162.093 43.1442 161.792 43.0189C161.482 42.8937 161.145 42.831 160.782 42.831C160.392 42.831 160.028 42.9026 159.7 43.0368C159.372 43.171 159.089 43.3679 158.849 43.6094C158.61 43.86 158.424 44.1463 158.291 44.4952C158.158 44.8352 158.087 45.211 158.087 45.6226C158.087 46.0073 158.149 46.3742 158.273 46.7142C158.397 47.0542 158.575 47.3494 158.805 47.6C159.035 47.8505 159.31 48.0473 159.638 48.1905C159.966 48.3337 160.338 48.4142 160.746 48.4142C161.243 48.4142 161.677 48.3337 162.049 48.1726C162.421 48.0115 162.767 47.7252 163.086 47.3137L162.421 46.7947ZM156.084 43.681C155.818 43.3947 155.516 43.18 155.171 43.0458C154.825 42.9115 154.453 42.84 154.063 42.84C153.673 42.84 153.292 42.9115 152.955 43.0458C152.618 43.1889 152.334 43.3768 152.095 43.6273C151.856 43.8779 151.67 44.1731 151.537 44.5131C151.404 44.8531 151.342 45.22 151.342 45.6226C151.342 46.0252 151.404 46.401 151.537 46.741C151.67 47.081 151.847 47.3763 152.086 47.6268C152.325 47.8773 152.609 48.0652 152.946 48.2084C153.283 48.3516 153.655 48.4142 154.063 48.4142C154.444 48.4142 154.807 48.3426 155.153 48.2084C155.499 48.0742 155.8 47.8594 156.048 47.5642L155.392 46.9379C155.073 47.3763 154.63 47.591 154.054 47.591C153.788 47.591 153.54 47.5373 153.327 47.4389C153.114 47.3405 152.928 47.1973 152.769 47.0094C152.618 46.8305 152.494 46.6158 152.405 46.3831C152.317 46.1415 152.272 45.891 152.272 45.6137C152.272 45.3363 152.308 45.0858 152.388 44.8442C152.458 44.6026 152.574 44.3968 152.715 44.2179C152.857 44.0389 153.043 43.8958 153.274 43.7973C153.495 43.6989 153.761 43.6452 154.054 43.6452C154.32 43.6452 154.559 43.6989 154.772 43.7973C154.985 43.8958 155.188 44.0658 155.375 44.2894L156.075 43.6631L156.084 43.681ZM144.002 48.28H144.88V45.6942C144.88 45.39 144.915 45.1126 144.977 44.8621C145.039 44.6115 145.137 44.3968 145.27 44.2179C145.403 44.0389 145.571 43.8958 145.775 43.7973C145.979 43.6989 146.227 43.6542 146.511 43.6542C146.919 43.6542 147.229 43.7794 147.424 44.0389C147.619 44.2984 147.716 44.6473 147.716 45.0947V48.28H148.594V45.0052C148.594 44.6831 148.558 44.3968 148.479 44.1284C148.399 43.86 148.275 43.6363 148.115 43.4394C147.947 43.2515 147.743 43.0994 147.495 43.001C147.246 42.8937 146.945 42.84 146.599 42.84C146.378 42.84 146.183 42.8668 145.997 42.9294C145.811 42.9831 145.642 43.0637 145.491 43.1531C145.341 43.2426 145.217 43.3589 145.101 43.4752C144.995 43.6005 144.906 43.7168 144.844 43.851H144.818C144.818 43.6989 144.818 43.5558 144.809 43.4126C144.809 43.2694 144.8 43.1263 144.8 42.9831H143.967C143.967 43.1621 143.967 43.35 143.993 43.5647C144.011 43.7794 144.02 44.0031 144.02 44.2447V48.2889L144.002 48.28ZM140.093 45.73V46.07C140.093 46.2847 140.049 46.4905 139.978 46.6873C139.907 46.8842 139.81 47.0452 139.686 47.1884C139.562 47.3316 139.402 47.4479 139.207 47.5373C139.021 47.6268 138.79 47.6715 138.542 47.6715C138.214 47.6715 137.939 47.6 137.718 47.4568C137.496 47.3137 137.39 47.081 137.39 46.75C137.39 46.3831 137.558 46.1237 137.886 45.9716C138.214 45.8105 138.657 45.73 139.225 45.73H140.102H140.093ZM137.23 44.2358C137.443 44.0389 137.682 43.8958 137.957 43.7973C138.232 43.6989 138.507 43.6542 138.79 43.6542C139.198 43.6542 139.526 43.7526 139.748 43.9494C139.978 44.1463 140.093 44.4415 140.093 44.8263V44.9873H139.757C139.437 44.9873 139.083 45.0052 138.693 45.0321C138.312 45.0589 137.948 45.1394 137.611 45.2558C137.275 45.381 137 45.56 136.778 45.8105C136.557 46.061 136.441 46.401 136.441 46.8394C136.441 47.0989 136.495 47.3226 136.601 47.5194C136.707 47.7163 136.849 47.8773 137.018 48.0115C137.195 48.1458 137.399 48.2442 137.638 48.3158C137.877 48.3873 138.126 48.4142 138.4 48.4142C138.808 48.4142 139.154 48.3247 139.437 48.1547C139.73 47.9758 139.952 47.761 140.129 47.4837H140.155C140.155 47.6 140.155 47.7252 140.155 47.8773C140.155 48.0205 140.173 48.1637 140.209 48.28H141.051C141.033 48.1458 141.006 47.9937 140.997 47.8326C140.98 47.6715 140.98 47.5105 140.98 47.3584V45.0768C140.98 44.3252 140.802 43.7616 140.466 43.3858C140.12 43.0189 139.562 42.831 138.781 42.831C138.4 42.831 138.019 42.8937 137.656 43.0279C137.292 43.1621 136.964 43.3679 136.698 43.6452L137.248 44.2268L137.23 44.2358ZM129.146 48.28H130.024V45.6942C130.024 45.39 130.059 45.1126 130.121 44.8621C130.184 44.6115 130.281 44.3968 130.414 44.2179C130.547 44.0389 130.715 43.8958 130.919 43.7973C131.123 43.6989 131.371 43.6542 131.655 43.6542C132.072 43.6542 132.373 43.7794 132.568 44.0389C132.763 44.2984 132.86 44.6473 132.86 45.0947V48.28H133.738V45.0052C133.738 44.6831 133.702 44.3968 133.623 44.1284C133.543 43.86 133.419 43.6363 133.259 43.4394C133.091 43.2515 132.887 43.0994 132.639 43.001C132.391 42.8937 132.089 42.84 131.744 42.84C131.522 42.84 131.327 42.8668 131.132 42.9294C130.946 42.9831 130.777 43.0637 130.627 43.1531C130.476 43.2426 130.343 43.3589 130.237 43.4752C130.13 43.6005 130.042 43.7168 129.98 43.851H129.962C129.962 43.6989 129.962 43.5558 129.953 43.4126C129.953 43.2694 129.944 43.1263 129.944 42.9831H129.111C129.111 43.1621 129.111 43.35 129.138 43.5647C129.155 43.7794 129.155 44.0031 129.155 44.2447V48.2889L129.146 48.28ZM121.834 44.8531C121.922 44.6116 122.047 44.4058 122.206 44.2268C122.374 44.0479 122.569 43.9047 122.8 43.8063C123.03 43.7079 123.287 43.6542 123.571 43.6542C123.855 43.6542 124.112 43.7079 124.342 43.8063C124.573 43.9047 124.768 44.0479 124.927 44.2268C125.096 44.4058 125.22 44.6116 125.308 44.8531C125.397 45.0947 125.441 45.3542 125.441 45.6315C125.441 45.9089 125.397 46.1684 125.308 46.41C125.22 46.6515 125.096 46.8573 124.927 47.0363C124.759 47.2152 124.564 47.3584 124.342 47.4568C124.121 47.5552 123.855 47.6089 123.571 47.6089C123.287 47.6089 123.03 47.5552 122.8 47.4568C122.569 47.3584 122.374 47.2152 122.206 47.0363C122.047 46.8573 121.914 46.6515 121.834 46.41C121.745 46.1684 121.701 45.9089 121.701 45.6315C121.701 45.3542 121.745 45.0947 121.834 44.8531ZM120.974 46.7589C121.116 47.0989 121.311 47.3942 121.559 47.6358C121.807 47.8863 122.1 48.0742 122.445 48.2084C122.791 48.3426 123.163 48.4142 123.571 48.4142C123.979 48.4142 124.351 48.3426 124.697 48.2084C125.042 48.0742 125.335 47.8773 125.583 47.6358C125.831 47.3942 126.026 47.0989 126.168 46.7589C126.31 46.4189 126.381 46.0431 126.381 45.6226C126.381 45.2021 126.31 44.8263 126.168 44.4863C126.026 44.1463 125.831 43.851 125.583 43.6094C125.335 43.3679 125.042 43.171 124.697 43.0368C124.351 42.9026 123.979 42.831 123.571 42.831C123.163 42.831 122.791 42.9026 122.445 43.0368C122.1 43.171 121.807 43.3679 121.559 43.6094C121.311 43.86 121.116 44.1463 120.974 44.4863C120.832 44.8263 120.761 45.2021 120.761 45.6226C120.761 46.0431 120.832 46.4189 120.974 46.7589ZM114.255 47.43C114.521 47.8058 114.814 48.0652 115.142 48.2084C115.47 48.3516 115.86 48.4142 116.303 48.4142C116.569 48.4142 116.826 48.3873 117.074 48.3247C117.322 48.2621 117.553 48.1637 117.748 48.0384C117.943 47.9042 118.102 47.7342 118.226 47.5194C118.341 47.3047 118.403 47.0542 118.403 46.75C118.403 46.4815 118.359 46.2579 118.271 46.0789C118.182 45.9 118.058 45.7479 117.898 45.6226C117.739 45.5063 117.561 45.4079 117.349 45.3363C117.136 45.2647 116.914 45.211 116.684 45.1573C116.507 45.1305 116.347 45.0858 116.188 45.041C116.028 44.9963 115.886 44.9426 115.762 44.88C115.638 44.8173 115.54 44.7458 115.47 44.6652C115.399 44.5847 115.363 44.4863 115.363 44.3789C115.363 44.2626 115.399 44.1463 115.461 44.0568C115.523 43.9584 115.602 43.8868 115.7 43.8242C115.797 43.7615 115.904 43.7168 116.028 43.69C116.152 43.6631 116.276 43.6452 116.391 43.6452C116.657 43.6452 116.879 43.6989 117.056 43.8242C117.242 43.9405 117.384 44.0926 117.499 44.2805L118.226 43.7973C118.049 43.4573 117.801 43.2158 117.482 43.0637C117.163 42.9116 116.817 42.84 116.445 42.84C116.196 42.84 115.957 42.8758 115.727 42.9384C115.496 43.01 115.283 43.1084 115.097 43.2337C114.911 43.3589 114.76 43.52 114.645 43.7258C114.53 43.9226 114.477 44.1463 114.477 44.4058C114.477 44.6742 114.53 44.8979 114.627 45.0768C114.725 45.2468 114.867 45.39 115.035 45.4973C115.204 45.6047 115.399 45.6942 115.629 45.7658C115.851 45.8373 116.09 45.891 116.338 45.9447C116.48 45.9715 116.622 46.0073 116.755 46.0431C116.888 46.0789 117.012 46.1326 117.109 46.1952C117.216 46.2579 117.295 46.3384 117.366 46.4279C117.428 46.5173 117.464 46.6337 117.464 46.7768C117.464 46.92 117.428 47.0452 117.366 47.1437C117.295 47.2421 117.207 47.3315 117.1 47.4031C116.985 47.4747 116.861 47.5194 116.728 47.5463C116.586 47.5731 116.453 47.591 116.32 47.591C116.01 47.591 115.744 47.5284 115.54 47.3942C115.337 47.2689 115.142 47.09 114.973 46.8752L114.273 47.421L114.255 47.43ZM107.776 45.1484C107.838 44.6921 108.015 44.3342 108.316 44.0568C108.618 43.7794 109.008 43.6452 109.495 43.6452C109.983 43.6452 110.364 43.7794 110.639 44.0568C110.913 44.3252 111.064 44.6921 111.073 45.1484H107.767H107.776ZM111.171 46.7947C110.958 47.0631 110.727 47.26 110.461 47.3942C110.196 47.5284 109.876 47.6 109.495 47.6C109.256 47.6 109.034 47.5552 108.83 47.4658C108.627 47.3763 108.449 47.251 108.299 47.0989C108.148 46.9468 108.024 46.7589 107.935 46.5531C107.838 46.3473 107.785 46.1326 107.776 45.9H112.021V45.6137C112.021 45.1752 111.959 44.7815 111.844 44.4415C111.72 44.1015 111.552 43.8063 111.33 43.5647C111.109 43.3231 110.843 43.1442 110.541 43.0189C110.231 42.8937 109.894 42.831 109.531 42.831C109.141 42.831 108.777 42.9026 108.449 43.0368C108.121 43.171 107.838 43.3679 107.598 43.6094C107.359 43.86 107.173 44.1463 107.04 44.4952C106.907 44.8352 106.836 45.211 106.836 45.6226C106.836 46.0073 106.898 46.3742 107.022 46.7142C107.146 47.0542 107.324 47.3494 107.545 47.6C107.776 47.8505 108.05 48.0473 108.387 48.1905C108.715 48.3337 109.088 48.4142 109.495 48.4142C109.992 48.4142 110.426 48.3337 110.798 48.1726C111.171 48.0115 111.516 47.7252 111.835 47.3137L111.171 46.7947ZM101.855 48.28H102.732V45.6942C102.732 45.0858 102.856 44.6026 103.096 44.2447C103.335 43.8958 103.734 43.7168 104.266 43.7168C104.434 43.7168 104.585 43.7437 104.735 43.7884L104.789 42.8937C104.727 42.8668 104.673 42.8579 104.611 42.8489C104.549 42.8489 104.487 42.84 104.434 42.84C104.212 42.84 104.017 42.8668 103.831 42.9294C103.645 42.9831 103.477 43.0637 103.326 43.1531C103.175 43.2426 103.042 43.3589 102.936 43.4752C102.83 43.6005 102.741 43.7168 102.679 43.851H102.652C102.652 43.6989 102.652 43.5558 102.644 43.4126C102.644 43.2694 102.635 43.1263 102.635 42.9831H101.801C101.801 43.1621 101.801 43.35 101.819 43.5647C101.837 43.7794 101.846 44.0031 101.846 44.2447V48.2889L101.855 48.28ZM91.8562 48.28H92.7337V45.6942C92.7337 45.0858 92.8578 44.6026 93.0971 44.2447C93.3453 43.8958 93.7353 43.7168 94.276 43.7168C94.4356 43.7168 94.5951 43.7437 94.7458 43.7884L94.799 42.8937C94.737 42.8668 94.6749 42.8579 94.6217 42.8489C94.5597 42.8489 94.4976 42.84 94.4445 42.84C94.2229 42.84 94.0279 42.8668 93.8417 42.9294C93.6556 42.9831 93.4872 43.0637 93.3365 43.1531C93.1858 43.2426 93.0528 43.3589 92.9465 43.4752C92.8401 43.6005 92.7514 43.7168 92.6894 43.851H92.6628C92.6628 43.6989 92.6628 43.5558 92.6539 43.4126C92.6539 43.2694 92.6451 43.1263 92.6451 42.9831H91.8119C91.8119 43.1621 91.8119 43.35 91.8385 43.5647C91.8562 43.7794 91.8562 44.0031 91.8562 44.2447V48.2889V48.28ZM88.7716 42.9742H87.8941V45.56C87.8941 45.8642 87.8586 46.1415 87.7966 46.3831C87.7345 46.6337 87.637 46.8484 87.504 47.0273C87.3711 47.2063 87.2027 47.3494 86.9988 47.4479C86.7949 47.5463 86.5467 47.591 86.2631 47.591C85.8554 47.591 85.5451 47.4658 85.3501 47.2063C85.1551 46.9468 85.0576 46.5979 85.0576 46.1505V42.9652H84.1801V46.24C84.1801 46.5531 84.2155 46.8484 84.2953 47.1168C84.3751 47.3852 84.4992 47.6179 84.6587 47.8058C84.8272 47.9937 85.031 48.1458 85.2792 48.2442C85.5274 48.3515 85.8288 48.4052 86.1745 48.4052C86.3961 48.4052 86.5911 48.3784 86.7772 48.3158C86.9634 48.2531 87.1318 48.1815 87.2824 48.0921C87.4331 47.9937 87.5661 47.8863 87.6725 47.77C87.7788 47.6537 87.8675 47.5284 87.9207 47.3942H87.9472C87.9472 47.5463 87.9472 47.6894 87.9561 47.8326C87.9561 47.9758 87.965 48.1189 87.965 48.2621H88.7982C88.7982 48.0921 88.7982 47.8952 88.7716 47.6805C88.7539 47.4658 88.7538 47.2421 88.7538 47.0005V42.9563L88.7716 42.9742ZM76.9029 44.8531C76.9915 44.6116 77.1156 44.4058 77.284 44.2268C77.4524 44.0479 77.6474 43.9047 77.869 43.8063C78.0995 43.7079 78.3565 43.6542 78.6402 43.6542C78.9238 43.6542 79.1809 43.7079 79.4113 43.8063C79.6418 43.9047 79.8368 44.0479 80.0052 44.2268C80.1648 44.4058 80.2977 44.6116 80.3775 44.8531C80.4661 45.0947 80.5105 45.3542 80.5105 45.6315C80.5105 45.9089 80.4661 46.1684 80.3775 46.41C80.2889 46.6515 80.1648 46.8573 80.0052 47.0363C79.8368 47.2152 79.6418 47.3584 79.4113 47.4568C79.1809 47.5552 78.9238 47.6089 78.6402 47.6089C78.3565 47.6089 78.0995 47.5552 77.869 47.4568C77.6386 47.3584 77.4436 47.2152 77.284 47.0363C77.1156 46.8573 76.9915 46.6515 76.9029 46.41C76.8142 46.1684 76.7699 45.9089 76.7699 45.6315C76.7699 45.3542 76.8142 45.0947 76.9029 44.8531ZM76.0519 46.7589C76.1938 47.0989 76.3888 47.3942 76.6369 47.6358C76.8851 47.8863 77.1776 48.0742 77.5233 48.2084C77.869 48.3426 78.2413 48.4142 78.649 48.4142C79.0568 48.4142 79.4291 48.3426 79.7748 48.2084C80.1204 48.0742 80.413 47.8773 80.6611 47.6358C80.9093 47.3942 81.1043 47.0989 81.2462 46.7589C81.388 46.4189 81.4589 46.0431 81.4589 45.6226C81.4589 45.2021 81.388 44.8263 81.2462 44.4863C81.1043 44.1463 80.9093 43.851 80.6611 43.6094C80.413 43.3679 80.1204 43.171 79.7748 43.0368C79.4291 42.9026 79.0568 42.831 78.649 42.831C78.2413 42.831 77.869 42.9026 77.5233 43.0368C77.1776 43.171 76.8851 43.3679 76.6369 43.6094C76.3888 43.86 76.1938 44.1463 76.0519 44.4863C75.9101 44.8263 75.8392 45.2021 75.8392 45.6226C75.8392 46.0431 75.9101 46.4189 76.0519 46.7589ZM73.9335 42.9742H72.9762L71.4161 47.1347H71.3895L69.7586 42.9742H68.7393L70.9198 48.3158L70.5652 49.3089C70.4677 49.5773 70.3525 49.7831 70.2195 49.9442C70.0866 50.1052 69.8738 50.1858 69.5902 50.1858C69.4661 50.1858 69.3509 50.1858 69.2534 50.1679C69.1558 50.1589 69.0583 50.1321 68.9697 50.0963L68.8545 50.8658C68.9786 50.9284 69.1027 50.9642 69.2445 50.9821C69.3863 51 69.5193 51 69.6434 51C69.9093 51 70.1309 50.9642 70.3082 50.8926C70.4854 50.821 70.645 50.7226 70.7779 50.5884C70.9109 50.4542 71.0173 50.2931 71.1148 50.1142C71.2123 49.9263 71.3009 49.7205 71.3895 49.4968L73.9246 42.9742H73.9335ZM60.7972 46.41C60.7086 46.6515 60.5845 46.8573 60.4161 47.0363C60.2477 47.2152 60.0527 47.3584 59.8311 47.4568C59.6006 47.5552 59.3436 47.6089 59.0599 47.6089C58.7763 47.6089 58.5192 47.5552 58.2888 47.4568C58.0583 47.3584 57.8633 47.2152 57.6949 47.0363C57.5265 46.8573 57.4024 46.6515 57.3137 46.41C57.2251 46.1684 57.1808 45.9089 57.1808 45.6315C57.1808 45.3542 57.2251 45.0947 57.3137 44.8531C57.4024 44.6116 57.5265 44.4058 57.6949 44.2268C57.8544 44.0479 58.0583 43.9047 58.2888 43.8063C58.5192 43.7079 58.7763 43.6542 59.0599 43.6542C59.3436 43.6542 59.6006 43.7079 59.8311 43.8063C60.0615 43.9047 60.2565 44.0479 60.4161 44.2268C60.5845 44.4058 60.7086 44.6116 60.7972 44.8531C60.8859 45.0947 60.9302 45.3542 60.9302 45.6315C60.9302 45.9089 60.8859 46.1684 60.7972 46.41ZM60.9213 48.28H61.7988V39.7084H60.9213V43.7437H60.8947C60.6554 43.4573 60.3806 43.2337 60.0615 43.0726C59.7424 42.9115 59.3967 42.831 59.0067 42.831C58.599 42.831 58.2178 42.9026 57.881 43.0368C57.5353 43.18 57.2517 43.3679 57.0124 43.6184C56.773 43.8689 56.5869 44.1642 56.4539 44.5042C56.321 44.8442 56.2501 45.211 56.2501 45.6137C56.2501 46.0163 56.321 46.3831 56.4539 46.7231C56.5869 47.0631 56.773 47.3584 57.0124 47.6089C57.2517 47.8594 57.5265 48.0563 57.8456 48.1905C58.1647 48.3337 58.5104 48.3963 58.8826 48.3963C59.3524 48.3963 59.769 48.2889 60.1236 48.0831C60.4781 47.8773 60.7352 47.6179 60.9036 47.3137H60.9302V48.2531L60.9213 48.28ZM48.9108 48.28H49.7883V45.6942C49.7883 45.39 49.8238 45.1126 49.8858 44.8621C49.9479 44.6115 50.0454 44.3968 50.1783 44.2179C50.3113 44.0389 50.4797 43.8958 50.6836 43.7973C50.8874 43.6989 51.1356 43.6542 51.4193 43.6542C51.827 43.6542 52.1372 43.7794 52.3322 44.0389C52.5272 44.2984 52.6247 44.6473 52.6247 45.0947V48.28H53.5023V45.0052C53.5023 44.6831 53.4668 44.3968 53.387 44.1284C53.3073 43.86 53.1832 43.6363 53.0236 43.4394C52.8641 43.2426 52.6513 43.0994 52.4031 43.001C52.155 42.8937 51.8536 42.84 51.5079 42.84C51.2952 42.84 51.0913 42.8668 50.9052 42.9294C50.719 42.9831 50.5506 43.0637 50.3999 43.1531C50.2492 43.2426 50.1251 43.3589 50.0099 43.4752C49.9035 43.6005 49.8149 43.7168 49.7617 43.851H49.7351C49.7351 43.6989 49.7351 43.5558 49.7263 43.4126C49.7263 43.2694 49.7174 43.1263 49.7174 42.9831H48.8842C48.8842 43.1621 48.8842 43.35 48.9108 43.5647C48.9285 43.7794 48.9374 44.0031 48.9374 44.2447V48.2889L48.9108 48.28ZM44.8866 41.3637C45.0107 41.4889 45.1614 41.5426 45.3475 41.5426C45.5337 41.5426 45.6843 41.48 45.8084 41.3637C45.9237 41.2473 45.9857 41.0863 45.9857 40.8984C45.9857 40.7284 45.9237 40.5763 45.7996 40.4421C45.6755 40.3168 45.5248 40.2452 45.3475 40.2452C45.1702 40.2452 45.0196 40.3079 44.8955 40.4421C44.7714 40.5673 44.7093 40.7194 44.7093 40.8984C44.7093 41.0863 44.7714 41.2473 44.8866 41.3637ZM44.9132 48.28H45.7907V42.9742H44.9132V48.28ZM40.0824 48.28H40.9599V43.7258H42.2363V42.9742H40.9599V41.981C40.9599 41.7573 40.9599 41.5426 40.9776 41.3458C40.9865 41.1489 41.0308 40.9789 41.0929 40.8447C41.1549 40.7016 41.2524 40.5942 41.3765 40.5137C41.5006 40.4331 41.6779 40.3973 41.9083 40.3973C42.0945 40.3973 42.2895 40.4331 42.5022 40.5137L42.6263 39.7173C42.5465 39.6726 42.4402 39.6368 42.3161 39.6189C42.192 39.5921 42.0679 39.5831 41.9615 39.5831C41.607 39.5831 41.3145 39.6368 41.0751 39.7442C40.8358 39.8515 40.6408 40.0037 40.499 40.2005C40.3483 40.3973 40.2508 40.63 40.1887 40.8984C40.1267 41.1668 40.1001 41.4621 40.1001 41.7842V42.9742H38.9567V43.7258H40.1001V48.28H40.0824Z" fill="white"/>
<path d="M96.2261 12.4637C95.2245 8.20474 91.6878 4.97474 86.7683 4.97474C81.8489 4.97474 78.3034 8.20474 77.3106 12.4637H96.235H96.2261ZM101.58 14.96C101.58 15.81 101.509 16.6421 101.376 17.4474H77.3372C78.4275 21.7063 82.2389 24.9363 86.7683 24.9363H92.131V29.92H86.7683C78.587 29.92 71.948 23.2274 71.948 14.96C71.948 6.69263 78.5781 0 86.7683 0C94.9586 0 101.589 6.69263 101.589 14.96M129.687 0.313158L118.519 11.5868L107.35 0.313158L103.769 3.92789L114.938 15.2016L103.769 26.4753L107.35 30.09L118.519 18.8163L129.687 30.09L133.268 26.4753L122.1 15.2016L133.268 3.92789L129.687 0.313158ZM163.281 12.4637H151.005V0.993158H145.943V12.4726H133.667V17.4563H145.943V29.9558H151.005V17.4563H163.281V12.4726V12.4637ZM56.1437 0.966316H38.9389V29.9468H44.0002V5.91421H56.1437C59.2638 5.91421 61.8077 8.47316 61.8077 11.6316V29.9558H66.869V11.7926C66.869 5.82474 62.0559 0.966316 56.1437 0.966316Z" fill="white"/>
<path d="M169.575 40.8179L168.883 42.4373L168.192 40.8358L168.183 40.8179H167.757V43.01H168.077V41.3458L168.768 42.9921L168.777 43.01H168.972L169.681 41.3458V43.01H170V40.8179H169.575Z" fill="white"/>
<path d="M165.444 41.1221H166.144V43.01H166.463V41.1221H167.155V40.8179H165.444V41.1221Z" fill="white"/>
</g>
<defs>
<clipPath id="clip0_4_322">
<rect width="170" height="51" fill="white"/>
</clipPath>
</defs>
</svg>
